<?xml version="1.0" standalone="no"?>
<!DOCTYPE svg PUBLIC "-//W3C//DTD SVG 20010904//EN"
 "http://www.w3.org/TR/2001/REC-SVG-20010904/DTD/svg10.dtd">
<svg version="1.0" xmlns="http://www.w3.org/2000/svg"
 width="300.000000pt" height="300.000000pt" viewBox="0 0 300.000000 300.000000"
 preserveAspectRatio="xMidYMid meet">
<metadata>
Created by potrace 1.10, written by Peter Selinger 2001-2011
</metadata>
<g transform="translate(0.000000,300.000000) scale(0.100000,-0.100000)"
fill="#000000" stroke="none">
<path d="M1356 2939 c-117 -12 -282 -52 -381 -93 -128 -53 -165 -71 -165 -77
0 -13 80 -144 88 -144 4 1 34 13 67 29 131 60 348 116 454 116 l51 0 0 90 c0
66 -3 90 -12 89 -7 -1 -53 -6 -102 -10z m75 -69 c7 -49 -5 -70 -44 -70 -26 0
-158 -25 -237 -44 -30 -8 -117 -39 -172 -62 -32 -13 -62 -24 -67 -24 -15 0
-53 69 -47 86 18 47 379 153 511 150 49 -1 50 -2 56 -36z"/>
<path d="M1540 2856 l0 -86 59 0 c117 0 337 -56 464 -119 l58 -28 40 69 c23
38 39 71 37 73 -1 1 -30 16 -63 33 -139 69 -339 123 -512 138 l-83 7 0 -87z
m210 33 c145 -23 385 -109 396 -141 6 -20 -18 -66 -41 -74 -7 -3 -30 3 -52 14
-95 48 -267 95 -391 108 -40 3 -75 11 -79 17 -10 16 -4 80 8 88 12 7 68 3 159
-12z"/>
<path d="M650 2669 c-145 -108 -258 -227 -368 -386 l-22 -31 76 -42 c42 -23
77 -40 78 -38 105 154 216 273 331 353 39 27 74 52 78 56 5 4 -11 41 -35 83
l-44 76 -94 -71z m110 -29 c11 -21 20 -41 20 -44 0 -3 -26 -22 -57 -43 -72
-47 -236 -211 -283 -280 -28 -42 -39 -52 -55 -46 -26 8 -65 33 -65 42 0 15 97
140 159 204 84 88 217 194 258 206 2 1 12 -17 23 -39z"/>
<path d="M2221 2658 c-26 -45 -38 -74 -31 -76 7 -3 47 -31 89 -63 95 -71 232
-214 285 -295 l39 -61 69 40 c37 22 68 43 68 47 0 4 -25 43 -56 86 -91 129
-268 298 -395 378 l-26 16 -42 -72z m135 -37 c76 -53 177 -150 239 -227 22
-27 43 -51 46 -54 10 -7 51 -82 47 -85 -6 -5 -67 -35 -71 -35 -3 0 -24 26 -48
57 -65 87 -186 209 -261 265 -38 28 -68 55 -68 60 0 15 30 68 39 68 4 0 39
-22 77 -49z"/>
<path d="M1530 2201 c0 -10 12 -44 26 -75 22 -48 24 -61 15 -89 -13 -40 -32
-51 -112 -72 -35 -9 -76 -23 -91 -31 -15 -8 -28 -12 -28 -10 0 14 24 55 30 51
8 -5 56 43 53 53 -6 17 11 44 34 53 66 25 87 -51 23 -83 -19 -10 -28 -18 -20
-18 28 0 79 39 86 65 9 34 -11 55 -53 55 -69 0 -127 -52 -164 -150 -27 -70
-25 -74 21 -41 l41 29 34 -21 c33 -21 34 -24 35 -84 l0 -63 -37 -1 c-21 0 -56
-6 -78 -14 l-40 -13 50 6 c66 9 148 9 210 0 33 -5 45 -5 35 2 -8 5 -41 12 -72
16 l-58 7 0 53 c0 60 9 66 39 28 12 -15 21 -23 21 -18 0 5 5 2 10 -6 5 -8 10
-10 10 -4 0 7 -16 26 -36 43 -30 27 -34 36 -29 60 4 19 16 33 35 41 16 6 36
20 45 31 25 27 31 99 11 137 -19 36 -21 56 -5 46 6 -4 25 -10 43 -14 17 -4 40
-11 50 -16 13 -5 17 -4 13 4 -4 6 -24 16 -45 23 -20 6 -41 18 -45 25 -13 22
-57 18 -57 -5z"/>
<path d="M192 2117 c-72 -155 -119 -335 -136 -524 l-6 -63 85 0 85 0 0 38 c0
119 68 376 129 489 l29 52 -74 41 c-40 22 -74 40 -76 40 -2 0 -18 -33 -36 -73z
m135 -23 c2 -7 -7 -34 -20 -60 -54 -107 -112 -326 -116 -440 -1 -24 -33 -35
-76 -26 -23 4 -25 9 -25 57 0 110 58 330 122 462 l31 63 40 -23 c22 -12 41
-27 44 -33z"/>
<path d="M2720 2154 c-30 -18 -61 -37 -69 -42 -11 -6 -8 -19 16 -67 61 -122
107 -290 119 -431 l7 -84 83 0 83 0 -5 53 c-12 120 -38 258 -66 347 -28 86
-102 262 -110 259 -2 -1 -28 -16 -58 -35z m81 -79 c63 -139 104 -295 116 -436
6 -74 5 -76 -18 -81 -13 -2 -35 -1 -49 2 -21 5 -26 13 -32 60 -20 149 -58 290
-107 403 -12 27 -21 55 -21 62 0 12 54 52 73 54 5 1 21 -28 38 -64z"/>
<path d="M590 1515 l0 -125 119 0 119 0 10 29 c10 28 13 30 67 30 54 0 57 -2
67 -30 8 -23 16 -29 39 -29 16 0 29 1 29 3 0 2 -24 57 -53 122 -49 110 -56
119 -81 120 -26 0 -31 -8 -79 -118 -33 -75 -53 -111 -55 -98 -3 19 -10 21 -63
21 l-59 0 0 100 0 100 -30 0 -30 0 0 -125z m350 -20 c0 -5 -16 -10 -35 -11
-19 0 -35 2 -35 5 0 3 8 25 17 50 l17 45 18 -40 c10 -21 18 -43 18 -49z"/>
<path d="M1225 1626 c-52 -23 -70 -52 -70 -112 0 -47 4 -57 33 -86 30 -30 38
-33 96 -33 81 0 96 12 96 76 0 46 -2 49 -25 49 -22 0 -25 -4 -25 -40 l0 -40
-43 0 c-30 0 -49 6 -60 18 -24 26 -22 87 3 112 24 24 82 27 100 5 12 -14 15
-14 31 1 26 23 24 29 -15 48 -41 19 -80 20 -121 2z"/>
<path d="M1494 1603 c-9 -19 -33 -74 -55 -121 -21 -46 -39 -86 -39 -88 0 -2
13 -4 29 -4 23 0 31 6 39 29 9 26 13 28 67 28 54 0 58 -2 67 -28 8 -23 16 -29
39 -29 16 0 29 1 29 3 0 1 -24 57 -54 122 -48 107 -57 120 -81 122 -22 2 -29
-4 -41 -34z m75 -109 c1 -6 -15 -10 -34 -10 -19 1 -35 3 -35 6 0 2 8 24 17 49
l17 44 17 -39 c10 -21 18 -44 18 -50z"/>
<path d="M1699 1636 c-2 -2 -3 -59 -1 -125 3 -121 3 -121 28 -121 21 0 24 5
24 35 0 32 3 35 28 35 20 0 33 -9 50 -35 17 -27 29 -35 53 -35 32 0 32 2 -4
52 l-20 27 22 18 c35 28 33 89 -3 119 -22 19 -38 24 -86 24 -32 0 -65 2 -72 5
-8 3 -16 4 -19 1z m141 -61 c29 -35 -6 -74 -67 -75 -21 0 -23 5 -23 45 l0 45
39 0 c22 0 44 -6 51 -15z"/>
<path d="M1940 1613 c0 -22 4 -23 65 -23 l66 0 -71 -82 c-97 -114 -96 -118 35
-118 58 0 105 4 105 9 0 5 3 17 6 26 6 15 -1 16 -65 13 -39 -1 -71 -1 -71 1 0
1 29 38 65 81 91 109 90 115 -35 115 -97 0 -100 -1 -100 -22z"/>
<path d="M2238 1592 c-11 -26 -35 -82 -54 -124 l-33 -78 28 0 c23 0 31 6 39
29 9 27 13 28 67 29 54 0 57 -1 67 -29 8 -23 16 -29 39 -29 16 0 29 1 29 3 0
1 -24 56 -54 121 -47 106 -56 119 -80 122 -24 2 -30 -3 -48 -44z m81 -97 c1
-6 -15 -11 -34 -11 -19 0 -35 2 -35 5 0 3 8 25 17 50 l17 44 17 -39 c10 -21
18 -44 18 -49z"/>
<path d="M56 1403 c9 -106 34 -243 60 -326 31 -99 103 -267 115 -267 6 0 119
62 137 75 1 1 -16 41 -39 89 -49 105 -97 287 -106 402 l-6 84 -83 0 -83 0 5
-57z m144 -70 c16 -132 53 -265 106 -382 14 -29 24 -54 22 -56 -2 -1 -21 -12
-42 -25 -37 -22 -39 -23 -52 -5 -51 69 -131 342 -141 476 l-6 89 50 0 51 0 12
-97z"/>
<path d="M2790 1421 c0 -112 -63 -354 -123 -473 -34 -66 -34 -66 -13 -76 12
-6 45 -25 73 -41 l53 -31 25 49 c70 140 128 335 140 474 3 39 8 87 11 105 l5
32 -86 0 -85 0 0 -39z m127 -73 c-12 -154 -46 -280 -119 -439 l-30 -67 -40 22
c-22 11 -42 26 -45 32 -2 6 10 41 26 77 17 37 33 79 37 94 4 15 10 33 14 38
12 16 40 143 50 228 5 43 12 83 15 88 4 5 27 9 52 9 l46 0 -6 -82z"/>
<path d="M657 1203 c-3 -5 -14 -32 -25 -61 -16 -42 -17 -52 -6 -52 8 0 14 7
14 15 0 9 9 15 25 15 16 0 25 -6 25 -15 0 -8 5 -15 10 -15 14 0 13 8 -8 62
-20 52 -27 63 -35 51z"/>
<path d="M788 1199 c-13 -7 -18 -22 -18 -50 0 -32 4 -41 25 -51 30 -14 55 3
55 38 0 17 -6 24 -20 24 -23 0 -27 -17 -5 -22 10 -2 12 -8 6 -17 -15 -23 -41
-5 -41 29 0 33 26 52 40 29 5 -7 12 -10 16 -6 9 8 -14 37 -30 37 -6 0 -19 -5
-28 -11z"/>
<path d="M920 1150 c0 -33 4 -60 10 -60 6 0 10 11 10 25 0 15 6 25 15 25 8 0
17 -11 21 -25 3 -14 13 -25 20 -25 12 0 12 5 -1 30 -9 17 -11 30 -5 30 5 0 10
11 10 24 0 25 -16 36 -56 36 -23 0 -24 -3 -24 -60z m65 25 c0 -5 -10 -11 -22
-13 -16 -2 -23 2 -23 13 0 11 7 15 23 13 12 -2 22 -7 22 -13z"/>
<path d="M1081 1196 c-7 -8 -11 -31 -9 -52 6 -72 70 -72 76 0 4 41 -11 66 -38
66 -10 0 -23 -6 -29 -14z m44 -47 c0 -24 -5 -34 -15 -34 -16 0 -25 37 -16 62
10 26 31 8 31 -28z"/>
<path d="M1220 1150 c0 -33 4 -60 10 -60 6 0 10 11 10 24 0 19 6 25 27 28 54
6 37 68 -18 68 -29 0 -29 -1 -29 -60z m58 23 c-5 -26 -38 -29 -38 -4 0 15 6
21 21 21 14 0 19 -5 17 -17z"/>
<path d="M1370 1150 l0 -60 35 0 c19 0 35 5 35 10 0 6 -13 10 -30 10 -20 0
-30 5 -30 15 0 9 9 15 25 15 14 0 25 5 25 10 0 6 -11 10 -25 10 -16 0 -25 6
-25 15 0 10 10 15 30 15 17 0 30 5 30 10 0 6 -16 10 -35 10 l-35 0 0 -60z"/>
<path d="M1516 1194 c-31 -31 -11 -104 28 -104 17 0 41 28 32 37 -4 4 -11 1
-16 -6 -14 -23 -40 -4 -40 29 0 33 26 52 40 29 5 -7 12 -10 16 -6 9 9 -15 37
-32 37 -7 0 -20 -7 -28 -16z"/>
<path d="M1640 1166 c0 -27 6 -51 16 -60 36 -36 74 -6 74 60 0 59 -18 56 -22
-3 -3 -40 -6 -48 -23 -48 -17 0 -20 8 -23 48 -4 59 -22 62 -22 3z"/>
<path d="M1815 1173 c-23 -55 -29 -83 -16 -83 6 0 11 7 11 15 0 9 9 15 25 15
16 0 25 -6 25 -15 0 -8 5 -15 11 -15 7 0 9 9 5 23 -8 32 -35 97 -41 97 -3 0
-12 -17 -20 -37z"/>
<path d="M1949 1208 c-5 -26 -1 -112 6 -108 5 3 8 13 7 23 -5 26 23 20 36 -8
6 -14 16 -25 22 -25 14 0 13 13 -2 28 -10 10 -10 17 0 32 15 25 15 25 -4 44
-12 13 -62 23 -65 14z m59 -35 c2 -8 -6 -13 -22 -13 -17 0 -26 5 -26 16 0 19
41 16 48 -3z"/>
<path d="M2090 1150 c0 -33 4 -60 10 -60 6 0 10 27 10 60 0 33 -4 60 -10 60
-6 0 -10 -27 -10 -60z"/>
<path d="M2196 1194 c-31 -30 -11 -104 28 -104 20 0 46 34 46 62 0 25 -27 58
-48 58 -6 0 -18 -7 -26 -16z m49 -24 c9 -29 -4 -62 -23 -58 -18 3 -28 39 -18
64 8 21 34 17 41 -6z"/>
<path d="M900 950 c0 -33 4 -60 10 -60 6 0 10 12 10 26 0 14 4 22 10 19 16
-10 50 14 50 36 0 12 -10 23 -26 29 -49 19 -54 15 -54 -50z m55 20 c0 -8 -8
-16 -17 -18 -13 -2 -18 3 -18 18 0 15 5 20 18 18 9 -2 17 -10 17 -18z"/>
<path d="M1047 1003 c-4 -3 -7 -30 -7 -60 l0 -53 40 0 c22 0 40 5 40 10 0 6
-13 10 -30 10 -20 0 -30 5 -30 15 0 9 9 15 25 15 14 0 25 5 25 10 0 6 -11 10
-25 10 -16 0 -25 6 -25 15 0 10 10 15 30 15 17 0 30 5 30 10 0 11 -63 14 -73
3z"/>
<path d="M1196 997 c-24 -18 -17 -50 13 -57 14 -3 27 -12 29 -19 3 -10 -4 -12
-27 -9 -40 6 -52 -9 -15 -18 56 -14 87 39 35 59 -35 13 -36 33 -2 30 24 -3 28
12 5 21 -20 8 -17 8 -38 -7z"/>
<path d="M1337 992 c-19 -21 -22 -54 -7 -83 8 -14 20 -18 44 -16 32 2 33 3 31
46 -1 30 -7 48 -20 57 -24 18 -29 18 -48 -4z m53 -43 c0 -11 -7 -19 -16 -19
-9 0 -12 -5 -8 -11 4 -7 1 -10 -7 -7 -18 6 -24 59 -8 69 17 10 39 -8 39 -32z"/>
<path d="M1470 962 c0 -53 12 -72 47 -72 28 0 45 31 41 76 -4 51 -21 46 -22
-6 -1 -38 -4 -45 -21 -45 -17 0 -20 8 -23 48 -4 62 -22 61 -22 -1z"/>
<path d="M1630 950 l0 -60 35 0 c19 0 35 5 35 10 0 6 -13 10 -30 10 -20 0 -30
5 -30 15 0 9 9 15 25 15 14 0 25 5 25 10 0 6 -12 10 -26 10 -34 0 -26 24 9 28
39 5 33 22 -8 22 l-35 0 0 -60z"/>
<path d="M1768 950 c-2 -46 0 -60 11 -60 9 0 11 8 7 25 -4 17 -2 25 7 25 8 0
19 -11 25 -25 6 -14 16 -25 22 -25 14 0 13 13 -2 28 -10 10 -10 17 0 32 15 25
7 46 -21 54 -42 11 -45 7 -49 -54z m60 23 c5 -17 -26 -29 -40 -15 -6 6 -7 15
-3 22 9 14 37 9 43 -7z"/>
<path d="M1926 994 c-20 -20 -21 -78 -1 -94 8 -7 25 -10 40 -6 22 6 25 12 25
51 0 34 -5 47 -19 55 -25 13 -27 13 -45 -6z m42 -48 c3 -32 1 -37 -15 -34 -19
3 -29 38 -19 65 10 26 31 8 34 -31z"/>
<path d="M333 786 l-71 -42 65 -91 c111 -156 404 -418 426 -381 58 98 77 131
75 133 -2 1 -32 21 -68 45 -84 56 -255 227 -311 311 l-44 67 -72 -42z m114
-80 c81 -107 171 -195 286 -279 41 -31 45 -46 21 -83 -13 -18 -22 -23 -38 -18
-66 21 -312 260 -372 362 -14 24 -24 45 -22 46 27 21 55 36 65 36 6 0 33 -29
60 -64z"/>
<path d="M2576 789 c-57 -97 -193 -235 -326 -333 -36 -26 -67 -49 -68 -51 -5
-4 77 -145 84 -145 11 0 101 65 176 127 88 73 183 176 256 280 l51 71 -71 41
c-39 23 -74 41 -77 41 -4 0 -15 -14 -25 -31z m80 -40 c39 -24 39 -26 -33 -125
-78 -107 -298 -304 -339 -304 -16 0 -56 59 -48 72 3 4 37 34 77 65 89 71 165
148 240 241 32 40 61 72 64 72 3 0 21 -9 39 -21z"/>
<path d="M848 300 c-21 -38 -38 -71 -38 -73 0 -8 159 -77 236 -103 91 -30 236
-59 347 -69 l77 -7 0 86 0 86 -54 0 c-123 0 -335 54 -468 120 -33 16 -61 30
-62 30 0 0 -18 -32 -38 -70z m100 6 c68 -35 237 -85 342 -100 63 -10 122 -21
130 -25 15 -8 21 -64 8 -84 -30 -48 -540 85 -564 148 -6 16 31 75 47 75 6 0
22 -6 37 -14z"/>
<path d="M2055 343 c-109 -57 -281 -102 -448 -119 l-68 -6 3 -86 3 -86 55 2
c101 5 244 33 361 72 120 40 243 96 237 108 -15 34 -81 142 -86 142 -4 -1 -29
-13 -57 -27z m76 -58 c10 -16 18 -35 18 -42 1 -11 -45 -36 -142 -78 -61 -27
-258 -73 -340 -81 -81 -7 -89 -3 -91 45 -2 41 11 60 47 65 194 29 332 65 415
107 49 24 72 20 93 -16z"/>
</g>
</svg>
